<svg xmlns="http://www.w3.org/2000/svg" aria-hidden="true" style="position:absolute;width:0;height:0;overflow:hidden">
    <defs>

        <!-- <!--Шапка сторінки--> -->
        <symbol id="icon-envelope" viewBox="0 0 21 16">
            <path
                d="M19.333 0H2C.897 0 0 .897 0 2v12c0 1.103.897 2 2 2h17.333c1.103 0 2-.897 2-2V2c0-1.103-.897-2-2-2zm0 1.333c.091 0 .177.019.255.052l-8.922 7.733-8.922-7.733A.661.661 0 0 1 2 1.333h17.333zm0 13.334H2A.667.667 0 0 1 1.333 14V2.794l8.896 7.71a.665.665 0 0 0 .874 0l8.896-7.71V14a.667.667 0 0 1-.667.667z" />
        </symbol>
        <symbol id="icon-smartphone" viewBox="0 0 10 16">
            <path
                d="M8.5 0h-7C.673 0 0 .673 0 1.5v13c0 .827.673 1.5 1.5 1.5h7c.827 0 1.5-.673 1.5-1.5v-13C10 .673 9.327 0 8.5 0zm-7 1h7a.5.5 0 0 1 .5.5V12H1V1.5a.5.5 0 0 1 .5-.5zm7 14h-7a.5.5 0 0 1-.5-.5V13h8v1.5a.5.5 0 0 1-.5.5z" />
            <path
                d="M2.354 13.739c.195.182.195.478 0 .66s-.512.182-.707 0c-.195-.182-.195-.478 0-.66s.512-.182.707 0z" />
        </symbol>

        <!--  <!--Інформація про сферу діяльності--> -->
        <symbol id="icon-antenna-1" viewBox="0 0 16 16">
            <path
                d="m15.387 11.049-4.222-4.253.469-2.308c.121.047.249.072.379.073h.003a1.08 1.08 0 1 0-1.005-.717l-2.48.303L4.486.081c-.05-.051-.117-.079-.188-.08s-.137.028-.187.078l-.756.752a.267.267 0 0 0 0 .377l.407.413a7.47 7.47 0 0 0 1.26 8.831.26.26 0 0 0 .073.049c-.017.09-.026.182-.026.274v3.093h-3.2a1.335 1.335 0 0 0-1.333 1.333v.533c0 .147.119.267.267.267H13.07a.267.267 0 0 0 .267-.267v-.533a1.335 1.335 0 0 0-1.333-1.333h-3.2v-1.371a7.504 7.504 0 0 0 1.524.16 7.42 7.42 0 0 0 3.52-.892l.409.411c.05.051.117.079.188.08s.137-.028.187-.078l.756-.752a.267.267 0 0 0 0-.377zM11.64 3.117a.533.533 0 1 1 .376.911h-.002a.534.534 0 0 1-.374-.911h-.001zm-.628 1.752-.299 1.473-.588-.591.887-.882zm-.303-.451-.96.954-.743-.747 1.703-.208zm1.293 9.982a.8.8 0 0 1 .8.8v.267H1.069V15.2a.8.8 0 0 1 .8-.8h10.133zm-3.733-1.067v.533H5.602v-.533h2.667zM5.602 12.8v-2.027c0-.647.598-1.173 1.333-1.173s1.333.526 1.333 1.173V12.8H5.601zm3.2-.848v-1.179c0-.941-.837-1.707-1.867-1.707a1.902 1.902 0 0 0-1.641.893 6.934 6.934 0 0 1-1.139-7.944l9.301 9.354a6.912 6.912 0 0 1-4.654.582zm5.645-.342L3.918 1.02l.377-.376 3.967 3.99c.002 0 .003.003.005.005l6.557 6.596-.378.376z" />
            <path
                d="M6.938 10.133h-.002a.8.8 0 1 0-.002 1.6h.002a.8.8 0 1 0 .002-1.6zm.186.989a.267.267 0 1 1-.188-.456.267.267 0 0 1 .186.456h.002z" />
        </symbol>
        <symbol id="icon-clock-1" viewBox="0 0 16 16">
            <path
                d="M15.648 7.651a7.654 7.654 0 0 0-15.305.003 7.651 7.651 0 0 0 5.325 7.288.333.333 0 0 0 .264-.033.318.318 0 0 0 .142-.178l1.933-6.125a.957.957 0 0 0-.009-1.913.942.942 0 0 0-.41.096L5.035 4.236a.319.319 0 0 0-.451.451l2.552 2.555a.939.939 0 0 0 .268 1.155l-1.841 5.836a7.022 7.022 0 1 1 5.285-.175l-.199-.937a.32.32 0 0 0-.524-.172l-1.918 1.713a.318.318 0 0 0 .116.542l2.449.782a.318.318 0 0 0 .409-.37l-.196-.92a7.627 7.627 0 0 0 4.664-7.045zm-7.652-.319a.32.32 0 1 1 0 .638.32.32 0 0 1 0-.638zm1.05 7.432 1.092-.974.301 1.42-1.393-.446z" />
            <path
                d="M7.677 1.593v.638a.32.32 0 0 0 .638 0v-.638a.32.32 0 0 0-.638 0zM1.938 7.332a.32.32 0 0 0 0 .638h.638a.32.32 0 0 0 0-.638h-.638zM14.054 7.969a.32.32 0 0 0 0-.638h-.638a.32.32 0 0 0 0 .638h.638z" />
        </symbol>
        <symbol id="icon-diagram-1" viewBox="0 0 16 16">
            <path
                d="M7.463 7.482h.533v2.399h-.533V7.482zM9.595 8.548h.533v1.333h-.533V8.548zM5.331 9.348h.533v.533h-.533v-.533zM3.731 9.081h.533v.8h-.533v-.8z" />
            <path
                d="M.8 14.145h12.793a.8.8 0 0 0 .8-.8v-1.066a.8.8 0 0 0-.8-.8h-.267V4.832l1.514-1.434a.805.805 0 0 0 .931-1.283.804.804 0 0 0-1.303.902l-1.141 1.081v-.615a.8.8 0 0 0-.8-.8H1.866a.8.8 0 0 0-.8.8v7.996H.799a.8.8 0 0 0-.8.8v1.066a.8.8 0 0 0 .8.8zM15.192 2.418a.267.267 0 1 1 0 .534.267.267 0 0 1 0-.534zM1.599 3.484c0-.147.119-.267.267-.267h10.661c.147 0 .267.119.267.267v1.119l-.533.506V4.016a.267.267 0 0 0-.267-.267H2.399a.267.267 0 0 0-.267.267v6.663c0 .147.119.267.267.267h9.595a.267.267 0 0 0 .267-.267V5.842l.533-.505v6.142H1.6V3.483zm2.399 3.465a.799.799 0 1 0 .554 1.374l.926.465a.266.266 0 0 0 .318-.061l1.969-2.216 1.936 1.451a.267.267 0 0 0 .343-.02l1.683-1.594v4.066H2.665v-6.13h9.062v1.33L9.841 7.4 7.889 5.936a.267.267 0 0 0-.359.036L5.534 8.218l-.746-.373a.777.777 0 0 0 .01-.097.8.8 0 0 0-.8-.8zm.266.8a.267.267 0 1 1-.534 0 .267.267 0 0 1 .534 0zm1.6 4.264h2.665v.267a.267.267 0 0 1-.267.267H6.13a.267.267 0 0 1-.267-.267v-.267zm-5.331.267c0-.147.119-.267.267-.267h4.531v.267a.8.8 0 0 0 .8.8h2.132a.8.8 0 0 0 .8-.8v-.267h4.531c.147 0 .267.119.267.267v1.066a.267.267 0 0 1-.267.267H.801a.267.267 0 0 1-.267-.267V12.28z" />
        </symbol>
        <symbol id="icon-astronaut-1" viewBox="0 0 16 16">
            <path
                d="M15.987 2.262a.266.266 0 0 0-.215-.181l-.955-.139-.427-.866c-.09-.182-.389-.182-.478 0l-.427.866-.955.139a.266.266 0 0 0-.148.454l.691.674-.163.951c-.017.1.024.201.106.261.083.06.191.068.281.02l.854-.449.854.449a.262.262 0 0 0 .281-.02.268.268 0 0 0 .106-.261l-.163-.952.691-.674a.266.266 0 0 0 .067-.273zm-1.231.664a.269.269 0 0 0-.077.236l.095.557-.5-.263a.262.262 0 0 0-.248 0l-.5.263.095-.557a.266.266 0 0 0-.077-.236l-.405-.395.559-.081a.267.267 0 0 0 .201-.146l.25-.507.25.507a.267.267 0 0 0 .201.146l.559.081-.405.395zM13.067 10.261h-.533v.533h.533v-.533zM13.067 11.328h-.533v.533h.533v-.533zM13.6 10.794h-.533v.533h.533v-.533zM12.533 10.794H12v.533h.533v-.533zM11.2 13.194h-.533v.533h.533v-.533zM11.2 14.261h-.533v.533h.533v-.533zM11.733 13.728H11.2v.533h.533v-.533zM10.667 13.728h-.533v.533h.533v-.533zM8 12.128h-.533v.533H8v-.533zM8 13.194h-.533v.533H8v-.533zM8.533 12.661H8v.533h.533v-.533zM7.467 12.661h-.533v.533h.533v-.533zM2.933 3.061H2.4v.533h.533v-.533zM2.933 4.128H2.4v.533h.533v-.533zM3.467 3.594h-.533v.533h.533v-.533zM2.4 3.594h-.533v.533H2.4v-.533z" />
            <path
                d="M12.357 7.08a.885.885 0 0 0-.594-.352.888.888 0 0 0-.67.176l-.626.48-.949.709-.679-.27a3.468 3.468 0 0 0 2.057-3.16c0-1.912-1.561-3.467-3.481-3.467S3.934 2.751 3.934 4.663c0 .693.207 1.337.56 1.879L3.112 6.53H3.11l-.012.002a.27.27 0 0 0-.078.015l-.019.007a.126.126 0 0 1-.01.003l-1.617.798h-.001l-.947.455a.89.89 0 0 0 .468 1.652.882.882 0 0 0 .42-.106l.694-.369 1.132-.585.678-.004-2.721 2.708-.001.001-.669.667c-.158.157-.245.366-.245.589s.087.432.245.589a.834.834 0 0 0 1.18 0l.657-.654.87-.65.45.449-.881.877-.001.001-.669.667c-.158.157-.245.366-.245.589s.087.432.245.589a.834.834 0 0 0 1.18 0l1.741-1.733.001-.001.505-.5-.002-.002c.003-.003.008-.004.011-.008l2.583-2.829 1.736.247a.243.243 0 0 0 .157-.028c.01-.005.02-.007.029-.014l1.607-1.067c.006-.004.009-.01.015-.015s.014-.007.02-.013l.636-.595a.89.89 0 0 0 .106-1.181zM1.065 8.885c-.087.046-.185.056-.279.026a.358.358 0 0 1-.106-.63l.657-.316.225.656-.496.264zm1.749-.914-.774.4-.219-.642 1.013-.5-.02.742zm7.549-3.31c0 .459-.11.892-.299 1.28l-2.091-.95a.931.931 0 0 0-.394-.694l.732-2.43a2.939 2.939 0 0 1 2.052 2.794zm-5.894 0a2.944 2.944 0 0 1 3.32-2.907l-.716 2.377c-.01 0-.019-.003-.029-.003-.516 0-.936.419-.936.933s.42.933.936.933a.935.935 0 0 0 .809-.472l1.931.877a2.945 2.945 0 0 1-2.368 1.195 2.944 2.944 0 0 1-2.947-2.933zm2.978.4c0 .221-.181.4-.403.4s-.403-.179-.403-.4c0-.221.181-.4.403-.4s.403.179.403.4zm-6.215 7.512a.304.304 0 0 1-.427 0 .297.297 0 0 1 0-.422l.481-.479.426.424-.479.477zm1.607 1.867a.304.304 0 0 1-.427 0 .297.297 0 0 1 0-.422l.481-.479.426.424-.48.478zm1.741-1.735-.001.001-.882.88-.426-.424.882-.878.001-.001a.251.251 0 0 0 .045-.068c.003-.007.01-.013.013-.02.008-.021.01-.043.013-.064.002-.012.007-.024.007-.036 0-.018-.006-.035-.01-.053-.003-.016-.003-.032-.009-.048a.252.252 0 0 0-.046-.069c-.005-.006-.007-.013-.013-.019l-.001-.001-.804-.8c-.009-.009-.019-.012-.029-.019-.014-.011-.028-.021-.043-.029s-.031-.012-.047-.016a.23.23 0 0 0-.051-.01c-.016-.001-.031.001-.048.002-.018.002-.035.005-.052.01s-.032.014-.047.022c-.01.006-.021.007-.03.014l-.887.662-.45-.449 1.2-1.193 2.18 2.144-.464.459zm3.41-3.508c-.008-.001-.015.002-.023.001a.286.286 0 0 0-.058.003c-.015.003-.03.006-.044.011a.265.265 0 0 0-.09.054c-.006.006-.014.008-.02.015l-2.349 2.573-2.164-2.128 1.417-1.409a.267.267 0 0 0-.19-.455l-1.109.007.014-.804 1.552.013a3.475 3.475 0 0 0 3.131.989c.02.016.04.032.065.042l1.205.48.165.822-1.501-.214zm2.02.089-.157-.779.723-.54.473.628-1.04.691zm1.877-1.415-.419.393-.466-.618.416-.319a.362.362 0 0 1 .511.071.357.357 0 0 1-.043.474z" />
            <path
                d="M6.801 9.272 5.73 8.205a.266.266 0 0 0-.376 0L4.283 9.272a.267.267 0 0 0 0 .378l1.071 1.067a.265.265 0 0 0 .376 0L6.801 9.65a.264.264 0 0 0 0-.378zm-1.259.88-.693-.69.693-.69.694.69-.694.69zM8.582 2.535l-.129.518c.035.009.869.226.869 1.074h.533c0-1.009-.833-1.483-1.273-1.592zM9.855 4.661h-.533v.533h.533v-.533z" />
        </symbol>

        <!-- Склад команды -->
        <symbol id="icon-instagram-2" viewBox="0 0 16 16">
            <path
                d="M15.984 4.704c-.037-.85-.175-1.435-.372-1.941a3.904 3.904 0 0 0-.925-1.419 3.944 3.944 0 0 0-1.416-.922C12.762.225 12.18.088 11.33.05 10.474.009 10.202 0 8.029 0S5.585.009 4.731.047c-.85.037-1.435.175-1.941.372a3.904 3.904 0 0 0-1.419.925c-.406.4-.722.885-.922 1.416-.197.51-.334 1.091-.372 1.941-.041.856-.05 1.128-.05 3.301s.009 2.444.047 3.298c.037.85.175 1.435.372 1.941.203.538.519 1.019.925 1.419.4.406.885.722 1.416.922.51.197 1.091.334 1.941.372.853.038 1.125.047 3.298.047s2.444-.009 3.298-.047c.85-.037 1.435-.175 1.941-.372a4.095 4.095 0 0 0 2.341-2.341c.197-.51.334-1.091.372-1.941.037-.853.047-1.125.047-3.298s-.003-2.444-.041-3.298zm-1.44 6.533c-.034.781-.166 1.203-.275 1.485a2.655 2.655 0 0 1-1.519 1.519c-.281.109-.706.241-1.485.275-.844.038-1.097.047-3.232.047s-2.391-.009-3.232-.047c-.781-.034-1.203-.166-1.485-.275a2.453 2.453 0 0 1-.919-.597 2.477 2.477 0 0 1-.597-.919c-.109-.281-.241-.706-.275-1.485-.038-.844-.047-1.097-.047-3.232s.009-2.391.047-3.232c.034-.781.166-1.203.275-1.485.128-.347.331-.663.6-.919.259-.266.572-.469.919-.597.281-.109.706-.241 1.485-.275.844-.037 1.097-.047 3.232-.047 2.138 0 2.391.009 3.232.047.781.034 1.203.166 1.485.275.347.128.663.331.919.597.266.259.469.572.597.919.109.281.241.706.275 1.485.038.844.047 1.097.047 3.232s-.009 2.385-.047 3.229z" />
            <path
                d="M8.03 3.891a4.111 4.111 0 0 0 0 8.22 4.111 4.111 0 0 0 0-8.22zm0 6.777a2.667 2.667 0 1 1 .001-5.333 2.667 2.667 0 0 1-.001 5.333zM13.262 3.729a.96.96 0 1 1-1.92 0 .96.96 0 0 1 1.92 0z" />
        </symbol>
        <symbol id="icon-twitter-1" viewBox="0 0 16 16">
            <path
                d="M16 3.039a6.839 6.839 0 0 1-1.89.518 3.262 3.262 0 0 0 1.443-1.813 6.555 6.555 0 0 1-2.08.794 3.28 3.28 0 0 0-5.674 2.243c0 .26.022.51.076.748a9.284 9.284 0 0 1-6.761-3.431 3.285 3.285 0 0 0 1.008 4.384A3.24 3.24 0 0 1 .64 6.078v.036a3.295 3.295 0 0 0 2.628 3.223 3.274 3.274 0 0 1-.86.108 2.9 2.9 0 0 1-.621-.056 3.311 3.311 0 0 0 3.065 2.285 6.59 6.59 0 0 1-4.067 1.399c-.269 0-.527-.012-.785-.045A9.234 9.234 0 0 0 5.032 14.5c6.036 0 9.336-5 9.336-9.334 0-.145-.005-.285-.012-.424A6.544 6.544 0 0 0 16 3.039z" />
        </symbol>
        <symbol id="icon-facebook-1" viewBox="0 0 16 16">
            <path
                d="M10.665 2.657h1.461V.113A18.755 18.755 0 0 0 9.998 0C7.892 0 6.449 1.325 6.449 3.759V6H4.125v2.844h2.324V16h2.849V8.845h2.23l.354-2.844H9.297V4.042c.001-.822.222-1.385 1.367-1.385z" />
        </symbol>
        <symbol id="icon-linkedin-1" viewBox="0 0 16 16">
            <path
                d="M15.996 16v-.001H16v-5.868c0-2.871-.618-5.082-3.974-5.082-1.613 0-2.696.885-3.138 1.725h-.047V5.317H5.659v10.682h3.313V10.71c0-1.393.264-2.739 1.989-2.739 1.699 0 1.725 1.589 1.725 2.829v5.201h3.31zM.264 5.318h3.317V16H.264V5.318zM1.921 0C.86 0 0 .861 0 1.921S.861 3.86 1.921 3.86c1.061 0 1.921-.879 1.921-1.939S2.981 0 1.921 0z" />
        </symbol>

        <!-- Постійні клієнти -->
        <symbol id="icon-Logo" viewBox="0 0 28 16">
            <path
                d="m10.133 1.867 1.869 1.769-3.469-.002v8.583H17.6V8.935l1.867 1.767V1.866h-9.333zm7.385 6.861-5.299-5.016h5.299v5.016zm-1.645 2.233H9.968V5.188h.417v5.382h5.487v.391zm-4.511 2.399-.218.449-.218-.449h-.183l.318.599v.349h.165v-.349l.318-.599h-.182zm.274.948.077-.221h.367l.077.221h.172l-.359-.948h-.148l-.358.948h.171zm.261-.747.137.393h-.275l.137-.393zm.868.37a.25.25 0 0 0 .048.315c.056.05.132.074.225.074s.174-.025.242-.076l.053.063h.184l-.139-.165a.471.471 0 0 0 .082-.287h-.137a.372.372 0 0 1-.04.174l-.183-.216.064-.047c.046-.033.078-.066.098-.099s.03-.07.03-.109c0-.06-.022-.11-.066-.15s-.1-.061-.169-.061c-.076 0-.137.022-.182.065s-.068.102-.068.176c0 .03.007.062.021.094s.041.072.077.118a.555.555 0 0 0-.141.131zm.428.21a.237.237 0 0 1-.15.053c-.047 0-.085-.014-.113-.041s-.042-.063-.042-.107c0-.051.026-.096.078-.135l.02-.014.207.244zm-.17-.42c-.045-.055-.067-.101-.067-.137 0-.032.009-.058.027-.079s.043-.031.074-.031c.029 0 .052.009.071.027s.028.038.028.063a.118.118 0 0 1-.04.092l-.02.016-.072.049zm1.543.515a.346.346 0 0 0 .112-.237h-.164c-.009.068-.029.116-.062.145s-.081.044-.146.044c-.071 0-.125-.027-.161-.081s-.055-.132-.055-.234v-.084c.001-.101.02-.178.059-.23s.094-.079.165-.079c.062 0 .108.015.14.046s.052.079.06.147h.164c-.01-.104-.048-.184-.111-.241s-.148-.085-.253-.085c-.078 0-.146.018-.206.055s-.104.089-.136.158a.55.55 0 0 0-.048.236v.089c.001.087.018.164.049.23s.076.117.133.153a.37.37 0 0 0 .2.053.38.38 0 0 0 .26-.085zm.968-.133a.585.585 0 0 0 .048-.245v-.053c0-.092-.017-.173-.05-.243a.364.364 0 0 0-.344-.216.37.37 0 0 0-.345.219.573.573 0 0 0-.049.245v.053c0 .091.017.171.049.24s.079.123.139.161c.06.037.129.056.206.056s.146-.019.206-.056a.37.37 0 0 0 .138-.161zm-.176-.536c.04.056.06.136.06.242v.049c0 .107-.02.188-.059.243s-.095.083-.168.083c-.072 0-.128-.028-.169-.085s-.061-.137-.061-.242v-.055c.001-.102.021-.181.061-.236s.096-.084.167-.084c.073 0 .129.028.169.084z" />
        </symbol>
        <symbol id="icon-Logo-1" viewBox="0 0 28 16">
            <path
                d="M13.364 1.583h-.036a4.713 4.713 0 0 0-.168-.006h-.121a6.911 6.911 0 0 0-.345.008A7.543 7.543 0 0 0 9.89 2.3l-.115.056V8.26l.27-.092c.237-.081.489-.155.75-.222a9.197 9.197 0 0 1 2.159-.287v.776c-.096.001-.19.003-.284.008h-.022a8.63 8.63 0 0 0-1.661.255 8.485 8.485 0 0 0-1.979.771V1.897a7.927 7.927 0 0 1 2.076-.844A7.92 7.92 0 0 1 13.04.801h.114c.136.003.269.009.394.019.329.023.655.075.975.155v.764a6.026 6.026 0 0 0-.944-.142l-.019-.002a2.183 2.183 0 0 0-.193-.011zm1.343.78c.169.013.345.019.522.019a8.396 8.396 0 0 0 2.057-.264 8.437 8.437 0 0 0 1.978-.772v7.438a7.961 7.961 0 0 1-2.076.844 8.015 8.015 0 0 1-1.956.252c-.5.004-.999-.055-1.484-.175V2.219a6.293 6.293 0 0 0 .96.144zm3.786.058-.27.091c-.248.083-.499.158-.75.224a9.171 9.171 0 0 1-2.242.288c-.176 0-.338-.005-.494-.015l-.215-.014v6.074l.185.016c.171.015.348.022.526.022a7.098 7.098 0 0 0 1.765-.229 7.378 7.378 0 0 0 1.38-.496l.115-.056V2.42zM9.53 12.057a.393.393 0 0 0-.3-.122.43.43 0 0 0-.308.122.436.436 0 0 0-.118.304v1.012a.475.475 0 0 0 .04.207.41.41 0 0 0 .101.136c.04.034.088.059.139.072a.55.55 0 0 0 .151.021.421.421 0 0 0 .386-.265.39.39 0 0 0 .032-.161v-.113h-.264v.09a.214.214 0 0 1-.016.09.173.173 0 0 1-.038.057.176.176 0 0 1-.11.038.134.134 0 0 1-.124-.054.24.24 0 0 1-.035-.136v-.943a.316.316 0 0 1 .032-.151c.014-.021.033-.038.056-.049s.048-.015.073-.012c.023-.001.045.004.066.014s.038.025.052.043c.03.039.045.087.044.136v.087h.262v-.103a.463.463 0 0 0-.12-.319zM11.101 12.045a.468.468 0 0 0-.459-.083.416.416 0 0 0-.243.225.457.457 0 0 0-.038.196v.97a.402.402 0 0 0 .141.335.45.45 0 0 0 .456.085.41.41 0 0 0 .243-.221.468.468 0 0 0 .038-.199v-.97a.441.441 0 0 0-.138-.338zm-.123 1.308c.002.026-.001.052-.01.076s-.024.046-.042.064a.195.195 0 0 1-.248 0 .17.17 0 0 1-.052-.14v-.97c-.002-.026.001-.052.01-.076s.024-.046.042-.064a.195.195 0 0 1 .248 0 .17.17 0 0 1 .052.14v.97zM13.165 13.787V11.95h-.254l-.334.972h-.005l-.337-.972h-.252v1.837h.262v-1.118h.005l.257.79h.131l.259-.79h.005v1.118h.262zM14.655 12.078a.357.357 0 0 0-.148-.1.558.558 0 0 0-.19-.028h-.39v1.837h.262v-.717h.135a.48.48 0 0 0 .236-.05.387.387 0 0 0 .144-.14.437.437 0 0 0 .06-.16c.01-.069.015-.139.014-.209a1.005 1.005 0 0 0-.026-.262.39.39 0 0 0-.096-.169zm-.134.56a.23.23 0 0 1-.024.096.148.148 0 0 1-.067.064.275.275 0 0 1-.123.023h-.119v-.625h.135a.252.252 0 0 1 .118.023.144.144 0 0 1 .061.068.276.276 0 0 1 .023.102v.122c0 .043.003.087 0 .126h-.003zM15.895 11.95h-.215l-.405 1.837h.262l.077-.395h.357l.077.395h.262l-.415-1.837zm-.241 1.192.129-.666h.005l.128.666h-.262zM17.587 13.056h-.005l-.395-1.107h-.252v1.837h.262v-1.105h.005l.4 1.105h.246v-1.837h-.262v1.107zM19.186 11.95l-.21.73h-.005l-.21-.73h-.277l.36 1.061v.776h.262v-.776l.36-1.061h-.277zM8.8 14.305h.126v.354h.086v-.354h.126v-.073h-.337v.073zM9.86 14.233l-.165.427h.091l.035-.097h.17l.036.097h.093l-.169-.427H9.86zm-.013.257.058-.158.058.158h-.116zM10.909 14.502h.098v.055a.162.162 0 0 1-.101.036.108.108 0 0 1-.09-.04.176.176 0 0 1-.032-.111c0-.095.041-.142.123-.142a.092.092 0 0 1 .097.068l.084-.016c-.018-.083-.078-.125-.181-.125a.215.215 0 0 0-.149.055.207.207 0 0 0-.062.164.233.233 0 0 0 .055.16.204.204 0 0 0 .162.062.253.253 0 0 0 .181-.068v-.168h-.185v.072zM11.979 14.233h-.086v.427h.299v-.073h-.212v-.354zM12.885 14.233h-.086v.427h.086v-.427zM13.77 14.517l-.175-.285h-.084v.427h.08v-.279l.171.279h.086v-.427h-.079v.285zM14.57 14.471h.213v-.073h-.213v-.094h.229v-.073h-.315v.427h.324v-.073h-.237v-.115zM16.51 14.401h-.168v-.168h-.086v.427h.086v-.186h.168v.186h.086v-.427h-.086v.168zM17.315 14.471h.213v-.073h-.213v-.094h.229v-.073h-.315v.427h.323v-.073h-.237v-.115zM18.406 14.471c.074-.012.112-.051.112-.119.002-.018-.001-.037-.008-.053s-.019-.031-.034-.042a.246.246 0 0 0-.125-.025h-.181v.427h.086v-.178h.017a.119.119 0 0 1 .053.009.081.081 0 0 1 .03.031l.093.136h.103l-.052-.083a.297.297 0 0 0-.094-.102zm-.086-.059h-.063v-.107h.067a.234.234 0 0 1 .087.01.056.056 0 0 1 .018.044c0 .008-.003.016-.007.024s-.009.014-.016.019a.234.234 0 0 1-.087.01zM19.229 14.471h.212v-.073h-.212v-.094h.229v-.073h-.316v.427h.324v-.073h-.237v-.115z" />
        </symbol>
        <symbol id="icon-Logo-2" viewBox="0 0 28 16">
            <path
                d="m9.708 13.094.012.002c.004.001.007.004.01.006l.058.056a.483.483 0 0 1-.164.106.625.625 0 0 1-.232.038.639.639 0 0 1-.218-.035.443.443 0 0 1-.27-.254.52.52 0 0 1 .003-.396c.025-.057.064-.11.113-.154s.109-.078.174-.1a.683.683 0 0 1 .225-.035.593.593 0 0 1 .209.032.57.57 0 0 1 .156.089l-.049.059-.012.011a.031.031 0 0 1-.02.004.047.047 0 0 1-.021-.006l-.026-.016-.036-.02a.42.42 0 0 0-.201-.042.44.44 0 0 0-.288.102.343.343 0 0 0-.082.119.402.402 0 0 0-.03.157.398.398 0 0 0 .03.159.337.337 0 0 0 .202.191.418.418 0 0 0 .15.025c.03 0 .059-.001.089-.005a.357.357 0 0 0 .191-.081.043.043 0 0 1 .028-.01zM11.388 12.814a.473.473 0 0 1-.039.196c-.024.057-.061.109-.11.153s-.107.078-.172.1a.71.71 0 0 1-.442 0c-.064-.023-.123-.057-.171-.1s-.086-.097-.111-.154a.517.517 0 0 1 0-.394.462.462 0 0 1 .111-.155.524.524 0 0 1 .171-.097.696.696 0 0 1 .442 0c.065.023.123.057.172.1s.085.096.11.152c.027.063.04.13.039.198zm-.153 0a.409.409 0 0 0-.028-.158.316.316 0 0 0-.078-.118.357.357 0 0 0-.123-.075.504.504 0 0 0-.321 0 .342.342 0 0 0-.123.075.319.319 0 0 0-.079.118.464.464 0 0 0 0 .316.307.307 0 0 0 .079.118.34.34 0 0 0 .123.074.518.518 0 0 0 .321 0 .34.34 0 0 0 .123-.074.338.338 0 0 0 .078-.118.409.409 0 0 0 .028-.158zM12.534 12.98l.015.035.017-.035.019-.035.372-.587c.007-.01.014-.016.021-.018a.08.08 0 0 1 .031-.003h.11v.954h-.13v-.765l-.374.595a.06.06 0 0 1-.054.03h-.021c-.011 0-.022-.003-.032-.008s-.017-.013-.022-.022l-.385-.599v.766h-.126v-.953h.11a.109.109 0 0 1 .031.003.04.04 0 0 1 .02.018l.38.587c.007.011.014.022.019.034zM13.932 12.932v.358h-.145v-.953h.324a.69.69 0 0 1 .181.021.375.375 0 0 1 .128.059.255.255 0 0 1 .073.094c.017.039.026.08.025.122a.262.262 0 0 1-.106.217.361.361 0 0 1-.129.063.609.609 0 0 1-.175.022l-.176-.002zm0-.102h.176a.432.432 0 0 0 .113-.014.248.248 0 0 0 .081-.041.164.164 0 0 0 .049-.063.172.172 0 0 0 .017-.08c.002-.027-.003-.053-.015-.078s-.029-.047-.051-.065a.31.31 0 0 0-.196-.051h-.176v.393zM15.886 13.291h-.115c-.012 0-.023-.003-.032-.009s-.015-.014-.019-.022l-.099-.231h-.497l-.102.231a.052.052 0 0 1-.051.03h-.115l.436-.955h.151l.442.955zm-.72-.354h.41l-.173-.389a.69.69 0 0 1-.033-.09l-.017.05a.415.415 0 0 1-.016.04l-.172.388zM16.514 12.341c.009.004.016.01.022.017l.636.72v-.742h.13v.955h-.073c-.01 0-.021-.002-.03-.006s-.017-.011-.023-.018l-.635-.719v.742h-.13v-.955h.077c.009 0 .018.001.026.004zM18.374 12.912v.379h-.145v-.379l-.402-.575h.13a.048.048 0 0 1 .031.008.08.08 0 0 1 .02.021l.252.371c.01.016.019.03.026.044l.018.04.019-.041a.276.276 0 0 1 .025-.044l.248-.373a.119.119 0 0 1 .019-.02.044.044 0 0 1 .031-.009h.132l-.403.577zM12.462 10.735c.063.007.127.013.192.018.981-.381 1.811-1.005 2.386-1.794s.87-1.707.847-2.641l-1.081-.939c.22.994.117 2.021-.297 2.967s-1.123 1.773-2.047 2.389z" />
            <path
                d="m12.076 10.691.029.005c.988-.614 1.741-1.471 2.162-2.461s.491-2.066.2-3.091l-1.54-1.338c.623 1.1.874 2.331.723 3.549s-.696 2.375-1.574 3.335zM17.298 7.42c-.262 1.026-.897 1.951-1.812 2.638a5.683 5.683 0 0 1-.861.537c.745-.19 1.43-.527 2.001-.983s1.015-1.021 1.296-1.65l-.625-.542z" />
            <path
                d="m17.053 7.269-.889-.773c-.017.881-.305 1.742-.835 2.493s-1.281 1.366-2.176 1.779h.004c.2 0 .399-.01.597-.031.837-.297 1.576-.769 2.151-1.374s.97-1.325 1.147-2.095zM12.204 3.243l-1.061-.923c-.948.318-1.764.878-2.34 1.606s-.886 1.59-.889 2.473c.004.976.382 1.923 1.074 2.691s1.661 1.314 2.751 1.55c.973-1.03 1.543-2.302 1.626-3.633s-.323-2.649-1.162-3.765zM19.504 7.127c-.004-1.158-.535-2.268-1.477-3.086s-2.22-1.28-3.552-1.284a5.634 5.634 0 0 0-1.801.291l6.495 5.643a3.84 3.84 0 0 0 .336-1.564z" />
        </symbol>
        <symbol id="icon-Logo-3" viewBox="0 0 28 16">
            <path
                d="M6.439 5.627h-.001c-.639 0-1.158.461-1.158 1.029v.001c0 .568.518 1.029 1.158 1.029h.001c.639 0 1.158-.461 1.158-1.029v-.001c0-.568-.518-1.029-1.158-1.029zM14.985 5.298c-.002-.789-.355-1.546-.983-2.104s-1.479-.873-2.367-.874c-.888.001-1.74.316-2.368.874s-.982 1.315-.984 2.105v4.353s6.702-.663 6.703-4.352v-.001zM2.933 11.08c.002.549.248 1.076.685 1.464s1.029.607 1.647.609c.618-.002 1.21-.22 1.647-.609s.683-.914.685-1.464V8.051s-4.664.462-4.664 3.028zm2.332.543c-.121 0-.239-.032-.339-.091s-.179-.144-.225-.244c-.046-.099-.058-.208-.035-.314s.082-.202.167-.278c.085-.076.194-.128.313-.149s.241-.01.353.031c.112.041.207.111.274.2a.501.501 0 0 1-.075.687c-.057.051-.124.091-.198.118s-.154.042-.234.042v-.002zM9.978 11.324h-.45v.465h-.234v-1.137h.741v.19h-.506v.294h.45v.189zm1.127-.078c0 .112-.02.21-.059.295s-.096.149-.17.195a.466.466 0 0 1-.253.069.452.452 0 0 1-.424-.262.67.67 0 0 1-.062-.291v-.056c0-.112.02-.21.06-.295a.45.45 0 0 1 .424-.265c.095 0 .179.023.252.069.074.045.131.111.171.196s.061.183.061.294v.051zm-.238-.052c0-.119-.021-.21-.064-.272s-.104-.093-.183-.093-.139.031-.182.092-.064.15-.065.269v.055c0 .116.021.206.064.27s.104.096.184.096c.079 0 .139-.031.181-.092s.064-.152.064-.27v-.055zm.998.296c0-.044-.016-.078-.047-.102s-.088-.049-.169-.075a1.311 1.311 0 0 1-.193-.078c-.129-.07-.194-.164-.194-.282 0-.061.017-.116.052-.164s.085-.086.149-.113a.566.566 0 0 1 .436.004.327.327 0 0 1 .201.307h-.234c0-.052-.016-.092-.049-.121s-.079-.044-.138-.044c-.057 0-.102.012-.134.037s-.048.056-.048.095c0 .037.018.068.055.093s.092.048.165.07c.133.04.23.09.291.149s.091.133.091.222c0 .098-.037.176-.112.232s-.175.084-.301.084c-.088 0-.167-.016-.239-.048s-.127-.076-.165-.132a.335.335 0 0 1-.056-.194h.235c0 .126.075.188.225.188.056 0 .099-.011.13-.034s.047-.055.047-.095zm1.251-.649h-.348v.948h-.234v-.948h-.344v-.19h.927v.19zm.818.455h-.45v.305h.528v.188h-.762v-1.137h.761v.19h-.527v.271h.45v.184zm.637.076h-.187v.416h-.234v-1.137h.423c.134 0 .238.03.311.09s.109.145.109.254c0 .078-.017.142-.051.195s-.084.093-.152.123l.246.465v.011h-.252l-.213-.416zm-.187-.19h.189c.059 0 .104-.015.137-.045s.048-.072.048-.124c0-.054-.015-.096-.046-.127s-.077-.046-.14-.046h-.188v.341zm1.421.206v.401h-.234v-1.137h.444c.085 0 .16.016.225.047s.115.076.15.134a.368.368 0 0 1 .052.196c0 .111-.038.199-.115.264s-.182.096-.316.096h-.205zm0-.19h.209c.062 0 .109-.015.141-.044s.049-.071.049-.125c0-.056-.016-.101-.049-.135s-.078-.052-.136-.053h-.215v.357zm1.482.098h-.45v.305h.528v.188h-.762v-1.137h.761v.19h-.527v.271h.45v.184zm1.088-.455h-.348v.948h-.234v-.948h-.344v-.19h.927v.19zm.819.455h-.45v.305h.528v.188h-.762v-1.137h.761v.19h-.527v.271h.45v.184zm.636.076h-.187v.416h-.234v-1.137h.423c.134 0 .238.03.311.09s.109.145.109.254c0 .078-.017.142-.051.195s-.084.093-.152.123l.246.465v.011h-.252l-.213-.416zm-.186-.19h.189c.059 0 .104-.015.137-.045s.048-.072.048-.124c0-.054-.015-.096-.046-.127s-.077-.046-.14-.046h-.188v.341zm1.377.308c0-.044-.016-.078-.047-.102s-.087-.049-.169-.075a1.311 1.311 0 0 1-.193-.078c-.129-.07-.194-.164-.194-.282 0-.061.017-.116.052-.164s.085-.086.149-.113a.566.566 0 0 1 .436.004.327.327 0 0 1 .201.307h-.234c0-.052-.016-.092-.049-.121s-.079-.044-.138-.044c-.057 0-.102.012-.134.037s-.048.056-.048.095c0 .037.018.068.055.093s.092.048.165.07c.133.04.23.09.291.149s.091.133.091.222c0 .098-.037.176-.112.232s-.175.084-.301.084c-.088 0-.167-.016-.239-.048s-.127-.076-.165-.132a.335.335 0 0 1-.056-.194h.235c0 .126.075.188.225.188.056 0 .099-.011.13-.034s.047-.055.047-.095z" />
        </symbol>
        <symbol id="icon-Logo-4" viewBox="0 0 28 16">
            <path
                d="M7.135 11.929c.065.074.1.166.098.261.003.062-.009.123-.035.18s-.066.108-.117.149a.7.7 0 0 1-.44.12h-.774v-1.651h.758c.15-.009.298.03.42.11a.36.36 0 0 1 .147.309.362.362 0 0 1-.088.252.416.416 0 0 1-.231.129.451.451 0 0 1 .262.141zm-.908-.249h.324a.323.323 0 0 0 .206-.055c.024-.02.043-.045.055-.073s.017-.058.014-.088c.002-.03-.003-.06-.015-.088s-.03-.053-.054-.074a.334.334 0 0 0-.212-.056h-.319v.433zm.562.633c.026-.021.046-.047.06-.076s.019-.061.017-.092a.204.204 0 0 0-.079-.169.359.359 0 0 0-.22-.06h-.34v.454h.344a.368.368 0 0 0 .218-.057zM8.686 12.639l-.422-.645h-.159v.645h-.363v-1.651h.687a.72.72 0 0 1 .478.14.497.497 0 0 1 .051.683.577.577 0 0 1-.328.168l.449.66h-.395zm-.581-.87h.297c.206 0 .309-.083.309-.25a.237.237 0 0 0-.076-.185.338.338 0 0 0-.233-.067h-.3l.004.502zM10.669 12.307h-.723l-.128.332h-.381l.664-1.633h.411l.662 1.633h-.381l-.125-.332zm-.097-.25-.264-.697-.264.697h.529zM13.153 12.639h-.36l-.808-1.123v1.123h-.359v-1.651h.359l.808 1.129v-1.129h.36v1.651zM15.209 12.244a.75.75 0 0 1-.326.291 1.142 1.142 0 0 1-.507.104h-.641v-1.651h.641c.175-.004.349.031.506.102a.738.738 0 0 1 .326.288c.074.134.113.283.113.433s-.039.299-.113.433zm-.413-.04c.103-.11.159-.249.159-.394s-.057-.284-.159-.394a.661.661 0 0 0-.451-.14h-.25v1.069h.25a.666.666 0 0 0 .451-.14zM10.895 1.804s4.65 1.608 4.552 3.934v3.934s-4.647-1.608-4.55-3.934l-.002-3.934zM19.589 8.752a6.751 6.751 0 0 1 2.955-.997V6.523c-1.222.431-2.258 1.213-2.955 2.229z" />
            <path
                d="M19.062 9.123c.719-1.325 1.965-2.348 3.482-2.858V2.716s-6.623 2.29-6.483 5.602v5.602s.295-.102.759-.294c0-.179 0-.36.021-.541.137-1.538.936-2.963 2.22-3.962z" />
            <path
                d="M18.432 11.204c.035-.388.112-.773.232-1.147a5.183 5.183 0 0 0-1.385 3.061c-.01.106-.015.213-.018.323a19.72 19.72 0 0 0 1.274-.615 5.33 5.33 0 0 1-.103-1.622zM18.695 11.224c-.044.491-.017.985.082 1.469 1.809-.991 3.843-2.523 3.764-4.374v-.161a6.186 6.186 0 0 0-3.443 1.473 5.13 5.13 0 0 0-.403 1.594z" />
        </symbol>
        <symbol id="icon-Logo-5" viewBox="0 0 28 16">
            <path
                d="M14.247 7.309a.783.783 0 0 1-.161-.53V6.01c0-.236.053-.415.16-.537s.29-.184.551-.183c.245 0 .418.052.521.156a.64.64 0 0 1 .154.46v.181h-.438v-.183a.894.894 0 0 0-.013-.179.166.166 0 0 0-.063-.106.25.25 0 0 0-.159-.041.27.27 0 0 0-.167.044.197.197 0 0 0-.072.117.867.867 0 0 0-.017.19v.933c-.007.09.012.18.056.262.022.028.052.05.087.064s.074.019.113.015a.238.238 0 0 0 .155-.042.183.183 0 0 0 .065-.113c.01-.062.015-.124.014-.187v-.189h.438v.173a.706.706 0 0 1-.151.483c-.101.114-.272.171-.524.171s-.442-.061-.55-.188zM16.069 7.317c-.111-.12-.166-.294-.166-.525v-.809c0-.228.055-.401.166-.519s.295-.176.554-.175c.257 0 .441.058.552.175s.167.29.167.519v.809c0 .228-.056.404-.169.524s-.295.181-.55.181c-.255 0-.443-.061-.554-.18zm.758-.194a.448.448 0 0 0 .053-.239v-.99a.442.442 0 0 0-.052-.235c-.022-.028-.053-.051-.089-.064s-.076-.019-.115-.014c-.039-.005-.079 0-.116.014s-.067.036-.09.064a.432.432 0 0 0-.053.235v.995a.439.439 0 0 0 .053.239.285.285 0 0 0 .204.08.301.301 0 0 0 .204-.08v-.005zM17.868 5.313h.471l.354 1.492.362-1.492h.458l.046 2.154h-.339l-.036-1.497-.35 1.497h-.272L18.2 5.965l-.034 1.502h-.342l.043-2.154zM20.088 5.313h.734c.423 0 .634.204.634.612 0 .391-.223.585-.668.585h-.25v.957h-.453l.003-2.154zm.627.92c.045.005.09.001.133-.01s.083-.031.116-.058a.347.347 0 0 0 .065-.243.686.686 0 0 0-.022-.196c-.006-.021-.018-.042-.033-.059s-.035-.032-.057-.043a.46.46 0 0 0-.202-.034h-.176v.644h.176zM22.109 5.313h.486l.499 2.154h-.422l-.099-.497h-.434l-.101.497h-.428l.499-2.154zm.416 1.408-.169-.904-.169.904h.339zM23.498 5.313h.317l.607 1.229V5.313h.376v2.154h-.302l-.611-1.283v1.283h-.389l.001-2.154zM25.679 6.646l-.505-1.33h.425l.308.854.289-.854h.416l-.498 1.33v.821h-.435v-.821zM14.946 8.408v.113h-.37v.875h-.155v-.875h-.371v-.113h.896zM16.105 9.396h-.12c-.012.001-.024-.003-.034-.009s-.016-.014-.02-.023l-.107-.235h-.513l-.107.235a.074.074 0 0 1-.016.027.049.049 0 0 1-.034.009h-.12l.453-.988h.158l.458.984zm-.75-.366h.428l-.181-.402a.798.798 0 0 1-.034-.093l-.017.052-.016.041-.179.401zM16.886 9.299h.085a.691.691 0 0 0 .137-.03l.061-.024v-.222h-.181c-.004 0-.009 0-.013-.002s-.008-.003-.011-.006l-.007-.008c-.002-.003-.002-.006-.002-.01v-.076h.352V9.3a.71.71 0 0 1-.305.101 1.457 1.457 0 0 1-.132.006.673.673 0 0 1-.228-.037.489.489 0 0 1-.298-.259.517.517 0 0 1-.001-.412c.026-.059.066-.112.117-.156s.113-.079.181-.102a.766.766 0 0 1 .243-.037.89.89 0 0 1 .126.009.652.652 0 0 1 .199.064.634.634 0 0 1 .079.052l-.044.061c-.003.006-.008.01-.015.014s-.013.005-.021.005a.054.054 0 0 1-.028-.008c-.014-.006-.028-.014-.044-.023a.563.563 0 0 0-.144-.049.733.733 0 0 0-.115-.009.543.543 0 0 0-.175.027.338.338 0 0 0-.217.201.466.466 0 0 0 0 .329.373.373 0 0 0 .223.202.517.517 0 0 0 .179.02zM18.33 9.284h.495v.113h-.646v-.988h.155l-.004.875zM19.339 9.396h-.155v-.988h.155v.988zM19.915 8.413a.108.108 0 0 1 .024.018l.662.745V8.405h.135v.992h-.078c-.012.001-.023-.001-.034-.005s-.018-.011-.024-.019l-.661-.744v.768h-.13v-.988h.081a.07.07 0 0 1 .025.005zM21.876 8.408v.109h-.549v.326h.445v.105h-.445v.337h.549v.109h-.708v-.986h.708zM5.643 2.308l6.879 1.686v5.909L5.643 8.218v-5.91zm-.441-.504v6.7l7.76 1.903V3.708l-7.76-1.904z" />
            <path
                d="M9.361 13.518 1.6 11.614v-6.7l7.761 1.904v6.7zM5.331 2.232l6.789 1.665L9.233 6.39l-6.79-1.666 2.888-2.493zm-.129-.428L1.6 4.914l7.761 1.904 3.601-3.11-7.76-1.904zM9.798 13.141l3.164-2.733-3.164-.777v3.509z" />
        </symbol>
    </defs>
</svg>